<svg width="16" height="16" viewBox="0 0 16 16" fill="none" xmlns="http://www.w3.org/2000/svg">
<g clip-path="url(#clip0_319_1983)">
<path d="M1 3.32422H3.02369V7.25504H7.3835V3.32422H9.40719V12.9997H7.3835V8.92901H3.02369V12.9997H1V3.32422Z" fill="#F7A144"/>
<path d="M11.9159 5.22703C11.7154 5.02652 11.6128 4.78405 11.6128 4.50894C11.6128 4.23383 11.7154 3.99136 11.9159 3.79086C12.1164 3.59035 12.3635 3.49243 12.6573 3.49243C12.951 3.49243 13.1982 3.59035 13.3987 3.79086C13.5992 3.9867 13.6971 4.22917 13.6971 4.50894C13.6971 4.78871 13.5992 5.02186 13.3987 5.22703C13.1982 5.42753 12.951 5.53011 12.6573 5.53011C12.3635 5.53011 12.1164 5.42753 11.9159 5.22703Z" fill="#3BB3B6"/>
<path d="M13.5058 6.36938H11.5427V13H13.5058V6.36938Z" fill="#F7A144"/>
<path d="M9.55062 2.2327C9.49391 2.22576 9.44203 2.1956 9.41038 2.14607C9.35199 2.05556 9.3705 1.93676 9.46101 1.87837L9.49517 1.85873C9.58911 1.80473 9.71016 1.83741 9.76392 1.9333C9.81792 2.02724 9.78524 2.14829 9.68934 2.20205C9.64836 2.22879 9.59756 2.23845 9.55062 2.2327Z" fill="#D0FAFB"/>
<path d="M15.7516 5.92697C15.6538 5.91501 15.5768 5.83017 15.5793 5.72924L15.5803 5.67181C15.5798 5.56258 15.668 5.47414 15.777 5.47557C15.8885 5.47333 15.9747 5.56328 15.9733 5.67227L15.9734 5.7358C15.972 5.84479 15.8821 5.93104 15.7731 5.92961C15.7652 5.92865 15.7594 5.92793 15.7516 5.92697ZM15.6816 5.05503C15.5975 5.04474 15.526 4.98041 15.5109 4.89321L15.5017 4.8385C15.4811 4.73078 15.5493 4.62798 15.657 4.60742C15.7647 4.58686 15.8673 4.65697 15.8881 4.76273L15.9 4.8277C15.9186 4.93517 15.8465 5.0375 15.7393 5.05415C15.719 5.05762 15.7012 5.05742 15.6816 5.05503ZM15.4429 4.21601C15.3745 4.20764 15.3125 4.16234 15.2833 4.09326L15.2619 4.04103C15.2186 3.94046 15.2665 3.82524 15.367 3.78198C15.4676 3.73871 15.5828 3.78655 15.6261 3.88712L15.6507 3.9457C15.692 4.04603 15.6422 4.16101 15.5419 4.20232C15.5106 4.21437 15.4764 4.21813 15.4451 4.2143L15.4429 4.21601ZM15.0246 3.45028C14.9718 3.44382 14.9196 3.41561 14.8878 3.36804L14.8556 3.32242C14.7909 3.23511 14.8099 3.11239 14.8972 3.04765C14.9845 2.98292 15.1092 3.00215 15.172 3.08922L15.211 3.14362C15.2735 3.23265 15.2506 3.35489 15.1616 3.41743C15.1203 3.44612 15.0713 3.45798 15.0243 3.45224L15.0246 3.45028ZM14.4435 2.79762C14.4044 2.79283 14.3667 2.77631 14.3364 2.74877L14.2915 2.70955C14.209 2.63792 14.2023 2.51404 14.274 2.43151C14.3456 2.34897 14.4695 2.3423 14.552 2.41393L14.5985 2.45535C14.6789 2.5287 14.6855 2.65258 14.6142 2.73315C14.5703 2.78336 14.5041 2.80503 14.4435 2.79762ZM10.3132 1.90506C10.2389 1.89596 10.1735 1.84628 10.1491 1.76986C10.1161 1.66658 10.1733 1.55647 10.2768 1.5215L10.3366 1.50302C10.4399 1.47001 10.5517 1.52935 10.5828 1.63239C10.6158 1.73567 10.5565 1.8475 10.4534 1.87855L10.3977 1.89556C10.3689 1.90394 10.3408 1.90645 10.3135 1.9031L10.3132 1.90506ZM13.7409 2.27893C13.7135 2.27558 13.6868 2.26636 13.6609 2.25128L13.6129 2.22159C13.5184 2.16636 13.4876 2.04548 13.5428 1.95102C13.5978 1.85851 13.717 1.82545 13.8134 1.88092L13.8689 1.91352C13.9612 1.97047 13.9901 2.09111 13.9329 2.18533C13.8908 2.25362 13.8154 2.28607 13.7411 2.27697L13.7409 2.27893ZM11.1658 1.71764C11.0778 1.70687 11.0051 1.63644 10.9943 1.54581C10.9818 1.4371 11.0593 1.3394 11.166 1.32666L11.2305 1.31868C11.339 1.30814 11.4345 1.38731 11.445 1.49578C11.4556 1.60425 11.3764 1.69975 11.2679 1.71029L11.2115 1.71728C11.1954 1.71928 11.1795 1.71932 11.1638 1.7174L11.1658 1.71764ZM12.9506 1.90831C12.9369 1.90663 12.9232 1.90495 12.9081 1.89913L12.8584 1.88313L12.9777 1.5087L12.9151 1.69556L12.9833 1.51138L13.0386 1.53005C13.1413 1.56644 13.1951 1.67822 13.1587 1.78095C13.1279 1.87046 13.0384 1.92103 12.9484 1.91002L12.9506 1.90831ZM12.0384 1.70734C11.9328 1.69441 11.857 1.5998 11.8661 1.49372C11.8753 1.38569 11.9724 1.30627 12.0804 1.31552L12.1449 1.32342C12.2525 1.33658 12.3299 1.43339 12.3168 1.54095C12.3036 1.6485 12.2068 1.72597 12.099 1.71476L12.0423 1.70782C12.0423 1.70782 12.0384 1.70734 12.0364 1.7071L12.0384 1.70734ZM12.9264 1.9113C12.8697 1.90436 12.8178 1.87419 12.7862 1.82467C12.7278 1.73416 12.7463 1.61535 12.8368 1.55696L12.871 1.53732C12.9649 1.48332 13.086 1.516 13.1397 1.6119C13.1937 1.70584 13.1611 1.82688 13.0652 1.88064C13.0242 1.90738 12.9734 1.91704 12.9264 1.9113Z" fill="#D0FAFB"/>
</g>
<defs>
<clipPath id="clip0_319_1983">
<rect width="16" height="16" fill="white"/>
</clipPath>
</defs>
</svg>
